<svg width="20" height="20" viewBox="0 0 20 20" fill="none" xmlns="http://www.w3.org/2000/svg">
<g id="live area">
<g id="Vector 2">
<path d="M15.7463 10.1973L7.40349 16.6862C7.23927 16.8139 7 16.6969 7 16.4888L7 3.51116C7 3.30312 7.23927 3.1861 7.40349 3.31382L15.7463 9.80266C15.875 9.90275 15.875 10.0972 15.7463 10.1973Z" stroke="#2D2D2D" stroke-width="1.6" stroke-linecap="round"/>
<path d="M15.7463 10.1973L7.40349 16.6862C7.23927 16.8139 7 16.6969 7 16.4888L7 3.51116C7 3.30312 7.23927 3.1861 7.40349 3.31382L15.7463 9.80266C15.875 9.90275 15.875 10.0972 15.7463 10.1973Z" stroke="black" stroke-opacity="0.2" stroke-width="1.6" stroke-linecap="round"/>
<path d="M15.7463 10.1973L7.40349 16.6862C7.23927 16.8139 7 16.6969 7 16.4888L7 3.51116C7 3.30312 7.23927 3.1861 7.40349 3.31382L15.7463 9.80266C15.875 9.90275 15.875 10.0972 15.7463 10.1973Z" stroke="black" stroke-opacity="0.2" stroke-width="1.6" stroke-linecap="round"/>
</g>
</g>
</svg>
